<svg width="36" height="36" viewBox="0 0 36 36" fill="none" xmlns="http://www.w3.org/2000/svg">
<path d="M2.99994 15L16.1258 4.49931C17.2214 3.62279 18.7784 3.62279 19.874 4.49931L32.9999 15" stroke="#2A3037" stroke-width="1.71215" stroke-linecap="round" stroke-linejoin="round"/>
<path d="M14.2165 6.07409L8.21651 10.9491C7.12713 11.8342 6.58244 12.2768 6.29124 12.8885C6.00006 13.5003 6.00006 14.2021 6.00006 15.6058V20.9999C6.00006 26.6567 6.00006 29.4853 7.75742 31.2425C9.51479 32.9999 12.3432 32.9999 18.0001 32.9999C23.6569 32.9999 26.4854 32.9999 28.2427 31.2425C30.0001 29.4853 30.0001 26.6567 30.0001 20.9999V15.6058C30.0001 14.2021 30.0001 13.5003 29.7089 12.8885C29.4176 12.2768 28.873 11.8342 27.7837 10.9491L21.7837 6.07409C19.9714 4.6016 19.0652 3.86536 18.0001 3.86536C16.9349 3.86536 16.0288 4.6016 14.2165 6.07409Z" stroke="#2A3037" stroke-width="2"/>
<path d="M14.625 24.375H21.375" stroke="#2A3037" stroke-width="1.71215" stroke-linecap="round"/>
</svg>
